<svg id="Layer_1" data-name="Layer 1" xmlns="http://www.w3.org/2000/svg" viewBox="0 0 300 300"><defs><style>.cls-1{fill:#279100;}.cls-2{fill:#065200;}.cls-3{fill:#48d000;}</style></defs><title>Full-white copy</title><path class="cls-1" d="M87.18,197.7a4.91,4.91,0,0,1-.81-.48A43.19,43.19,0,0,0,63,188.6c-6.06-.37-5.85-9.82.24-9.45A53.38,53.38,0,0,1,80.35,183c-4-9.1-7.79-18.32-11-27.69a3.91,3.91,0,0,1-2.87-1.6,37.82,37.82,0,0,0-24.17-14.26c-6-.86-5.79-10.32.24-9.45a48.82,48.82,0,0,1,21.74,8.64,178.71,178.71,0,0,1-6-39.71c-.2-6.08,9.25-5.82,9.45.24,1.14,35.34,15,68,30.32,99.32,3.6,7.39,7.35,14.77,11,22.23a170.57,170.57,0,0,0,8.72-29.18q-4.76-8.6-9.28-17.36C98,154,87.64,134.3,84.41,111.47c-1.94-13.73-2.83-28.8-1.24-43.33C61.09,60.28,37,71.07,25,90.68c-12.62,20.56-12.47,47-5,69.36,8,23.7,24.09,42.32,44.7,56C76.5,224,88.93,230.74,100.9,238.27c1.11-2.11,2.19-4.23,3.22-6.37C98.77,220.32,92.71,209,87.18,197.7"/><path class="cls-1" d="M118.23,241.48a171,171,0,0,0,4.19-36,4.33,4.33,0,0,1,1.34-3.21q-3.09-5.28-6.06-10.65A170.57,170.57,0,0,1,109,220.76c3.3,6.83,6.46,13.72,9.25,20.72"/><path class="cls-1" d="M104.12,231.9c-1,2.14-2.11,4.26-3.22,6.37,2.8,1.77,5.59,3.56,8.33,5.42-1.6-4-3.32-7.89-5.11-11.79"/><path class="cls-2" d="M118.23,241.48c-.46-1.14-.92-2.28-1.39-3.41a0,0,0,0,1,0,0h0c-2.42-5.82-5.08-11.57-7.84-17.28a170.63,170.63,0,0,0,8.72-29.16q2.86,5.19,5.86,10.29l.2.34h0l0,0a4.32,4.32,0,0,0-1.32,3.19h0a171.71,171.71,0,0,1-4.19,36"/><path class="cls-2" d="M109.23,243.69q-4.11-2.79-8.32-5.43c1.1-2.11,2.19-4.22,3.21-6.36,1.79,3.9,3.51,7.83,5.11,11.79h0"/><path d="M245.76,180.27c-3.48,3.87-7.21,7.62-11.11,11.17,3.61-1.86,6.72-3.43,9.7-4.87a3.86,3.86,0,0,0,2.24-2.63,4.7,4.7,0,0,0-.83-3.67m-14.2,13.31,1.41-1.26a161.23,161.23,0,0,0,12.63-12.58l.18-.2.18.22a5.16,5.16,0,0,1,1.09,4.28,4.33,4.33,0,0,1-2.49,3c-3.41,1.65-7,3.47-11.33,5.71l-1.67.87"/><path class="cls-1" d="M240.69,96.4c.84-6,10.29-5.78,9.45.24a230.2,230.2,0,0,1-11.93,46.16,132.67,132.67,0,0,1,18.8-9.44c5.58-2.26,10.19,6,4.56,8.27a133.33,133.33,0,0,0-27.34,15,4.44,4.44,0,0,1-1.65.74c-4.45,10.89-9.34,21.63-14.28,32.36q10.65-5.88,21.59-11.21a4.66,4.66,0,0,1,5.88,1.39,153.51,153.51,0,0,0,38-82.92,54.63,54.63,0,0,0-2.6-8.23c-9-22-36.67-30.22-58.33-23.84a5.18,5.18,0,0,1-1.36.19c.56,4.1,1,8.16,1.26,12.06a150.5,150.5,0,0,1-7.36,59.24c-8,23.91-22.13,44.52-36.89,64.71,0,.13.1.25.14.4,1.6,7.23,3.34,14.43,5.17,21.6q6.28-2.58,12.3-5.6c17.4-39.57,38.53-77.86,44.62-121.11"/><path class="cls-1" d="M212.75,203.72a5,5,0,0,1-1.11.48q-1.42,3.12-2.83,6.26a169.28,169.28,0,0,0,24.32-18q-10.32,5.35-20.38,11.22"/><path class="cls-1" d="M196.07,217.51q-6,3-12.3,5.6,1.88,7.33,3.88,14.65c2.64-6.81,5.48-13.55,8.42-20.25"/><path class="cls-2" d="M187.65,237.76q-2-7.31-3.88-14.65,6.28-2.58,12.3-5.6c-2.57,5.85-5.06,11.73-7.41,17.66l0,.09-.06.17c-.25.63-.5,1.25-.74,1.88l0,0c0,.05,0,.1-.05.14s-.07.18-.1.27h0"/><path class="cls-1" d="M244.45,186.78c-3.8,1.85-7.57,3.77-11.32,5.72a169.28,169.28,0,0,1-24.32,18c-4.36,9.65-8.58,19.35-12.35,29.2,17.18-9.76,35.06-19.3,50.44-31.26,16.34-12.72,25.49-31.6,31-51.16,5.16-18.41,10.38-40.86,5.86-60.26a153.51,153.51,0,0,1-38,82.92c1.66,2.11,1.77,5.39-1.32,6.88"/><path class="cls-2" d="M196.46,239.66l.11-.27v0l.09-.22a.25.25,0,0,1,0-.07l.08-.19,0-.08.07-.19,0-.08,0-.12c3.65-9.42,7.68-18.7,11.86-27.94a169.28,169.28,0,0,0,24.32-18c3.75-1.95,7.52-3.87,11.32-5.72a4.15,4.15,0,0,0,2.29-2.49h0v0h0v0h0s0,0,0,0h0a4.94,4.94,0,0,0-1-4.26,153.51,153.51,0,0,0,38-82.92,71.47,71.47,0,0,1,1.73,16.09c0,14.51-3.55,29.59-7.19,42.74l0,0v.06l0,.06a.31.31,0,0,1,0,.08v0l0,.08v0l0,.12c0,.06,0,.12-.05.18l0,0a.29.29,0,0,1,0,.09v0l0,.09a.43.43,0,0,0,0,.05l0,.08v0l0,.1a0,0,0,0,1,0,0l0,.1h0l0,.13h0c-5.49,19.56-14.64,38.44-31,51.16-15.38,12-33.26,21.5-50.44,31.26"/><path class="cls-1" d="M147.87,158.66a304.84,304.84,0,0,0-26.2-23.3c-4.73-3.72.08-11.86,4.84-8.12q11.07,8.72,21.33,18.31,0-21.92-.3-43.82C138,93.5,128.38,85.35,118.91,77c-4.58-4,2.24-10.58,6.77-6.6,7.17,6.31,14.43,12.52,21.68,18.73q-.35-20.25-.89-40.51c-.17-6.09,9.28-5.83,9.45.24q.57,21,.91,42Q166,80.71,175.62,71c4.3-4.32,10.88,2.47,6.59,6.77q-13.05,13.11-25.13,27.12l-.05,0q.28,23,.29,46,9-10.51,18.83-20.23c4.36-4.28,10.93,2.51,6.6,6.76A317.3,317.3,0,0,0,158.6,164.1a4.48,4.48,0,0,1-1.29,1.1c0,5.15-.06,10.3-.09,15.45,37.87-38.57,56.74-93,41-152.89-21.13-26.16-68.83-22.56-90.26.83C95.18,42.49,93.22,61.24,92.42,79.32s.79,36.32,6.74,53.44c5.9,16.94,15.34,33.05,23.79,48.83q5.2,9.71,10.84,19.18,7.26-5.25,13.92-11.11.14-15.51.16-31"/><path class="cls-1" d="M157.22,180.65q-.1,17-.36,34c18.39-25.17,38.53-49.71,48.88-79.32a143.51,143.51,0,0,0,7.89-51.73c-.53-16.92-3.35-37.59-12.7-52.13a43.47,43.47,0,0,0-2.74-3.75c15.77,59.92-3.1,114.32-41,152.89"/><path class="cls-1" d="M147.71,189.66q-6.65,5.85-13.92,11.11c4.25,7.1,8.71,14.07,13.5,20.82q.28-16,.42-31.93"/><path class="cls-2" d="M156.86,214.69c0-.34,0-.69,0-1v-.06q.26-16.48.36-33C186,151.33,203.8,112.9,203.77,69.84h0a165.84,165.84,0,0,0-5.58-42.08c.9,1.12,1.78,2.28,2.59,3.51l.15.24c9.35,14.54,12.17,35.21,12.7,52.13a143.87,143.87,0,0,1-6.52,47.63c-.44,1.37-.9,2.74-1.37,4.1-10.35,29.61-30.49,54.15-48.88,79.32"/><path class="cls-2" d="M147.29,221.59h0l-.4-.57,0-.05-.15-.2c-4.57-6.49-8.84-13.19-12.92-20q7.26-5.25,13.92-11.11-.14,16-.42,31.93"/><path d="M25,90.68c12-19.61,36.14-30.4,58.22-22.54-1.59,14.53-.71,29.6,1.24,43.33,3.23,22.83,13.57,42.53,24,62.75,4.89,9.48,10,18.85,15.34,28a4.33,4.33,0,0,0-1.34,3.21,171.71,171.71,0,0,1-4.19,36c-5.83-14.65-13.3-28.8-20.2-42.95-15.28-31.32-29.18-64-30.32-99.32-.2-6.06-9.65-6.32-9.45-.24a178.71,178.71,0,0,0,6,39.71A48.82,48.82,0,0,0,42.56,130c-6-.87-6.2,8.59-.25,9.45a37.82,37.82,0,0,1,24.18,14.26,3.91,3.91,0,0,0,2.87,1.6c3.2,9.37,6.94,18.59,11,27.69a53.38,53.38,0,0,0-17.13-3.89c-6.09-.37-6.3,9.08-.24,9.45a43.19,43.19,0,0,1,23.39,8.62,4.91,4.91,0,0,0,.81.48c7.39,15.09,15.74,30.26,22,46-14.43-9.85-30-17.9-44.55-27.61C44.07,202.36,28,183.74,20,160c-7.5-22.32-7.65-48.8,5-69.36M92.42,79.32c.8-18.08,2.75-36.83,15.51-50.73,22.41-24.45,73.57-27.31,93,2.92,9.35,14.54,12.17,35.21,12.7,52.13a143.51,143.51,0,0,1-7.89,51.73c-10.35,29.61-30.49,54.15-48.88,79.32q.39-24.75.45-49.49a4.48,4.48,0,0,0,1.29-1.1,317.3,317.3,0,0,1,24.15-26.63c4.33-4.25-2.24-11-6.6-6.76q-9.87,9.71-18.83,20.23,0-23-.29-46l.05,0q12.07-14,25.13-27.12c4.29-4.3-2.29-11.09-6.59-6.77q-9.66,9.7-18.79,19.9-.33-21-.91-42c-.17-6.07-9.62-6.33-9.45-.24q.56,20.26.89,40.51c-7.25-6.21-14.51-12.42-21.68-18.73-4.53-4-11.35,2.57-6.77,6.6,9.47,8.32,19.08,16.47,28.63,24.7q.3,21.9.3,43.82-10.28-9.59-21.33-18.31c-4.76-3.74-9.57,4.4-4.84,8.12a304.84,304.84,0,0,1,26.2,23.3q0,31.47-.58,62.93a374.47,374.47,0,0,1-24.34-40c-8.45-15.78-17.89-31.89-23.79-48.83-6-17.12-7.54-35.42-6.74-53.44m130.29-2.16c-.29-3.9-.7-8-1.26-12.06a5.18,5.18,0,0,0,1.36-.19c21.66-6.38,49.29,1.88,58.33,23.84,8.64,21,2.65,47.4-3.26,68.49-5.49,19.56-14.64,38.44-31,51.16-15.38,12-33.26,21.5-50.44,31.26,4.59-12,9.82-23.74,15.18-35.46a5,5,0,0,0,1.11-.48q15.52-9.09,31.7-16.94c5.48-2.65.9-10.92-4.56-8.27q-10.95,5.31-21.59,11.21c4.94-10.73,9.83-21.47,14.28-32.36a4.44,4.44,0,0,0,1.65-.74,133.33,133.33,0,0,1,27.34-15c5.63-2.27,1-10.53-4.56-8.27a132.67,132.67,0,0,0-18.8,9.44,230.2,230.2,0,0,0,11.93-46.16c.84-6-8.61-6.2-9.45-.24-7.13,50.57-34.82,94.37-53,141.36q-5-18-9.05-36.25c0-.15-.1-.27-.14-.4,14.76-20.19,28.85-40.8,36.89-64.71a150.5,150.5,0,0,0,7.36-59.24M6.6,144.8A112.31,112.31,0,0,0,43,211.43c21.62,19.13,49.23,29.52,71.48,47.78.06.05.12.07.17.11a106.63,106.63,0,0,1,4.45,29.95c0,6.09,9.42,6.33,9.45.24a113,113,0,0,0-4.82-32.09,3.7,3.7,0,0,0,.17-.4,180.4,180.4,0,0,0,7.62-42.13c4.19,6.56,8.59,13,13.3,19.23.09.11.18.18.26.28a4.81,4.81,0,0,0,1.94,2.34q-.63,29.2-1.7,58.41c-.22,6.09,9.22,6.32,9.44.24q1.19-32,1.82-64.06c4.69-6.81,9.6-13.52,14.53-20.22q4.62,19.83,10.29,39.39a4.79,4.79,0,0,0,1,1.82,221.68,221.68,0,0,0-9.35,38c-.88,6,8.58,6.19,9.45.24a221.11,221.11,0,0,1,9.08-37.21l38.19-22.84c10.86-6.51,22.12-12.74,31.08-21.85,16.66-17,24.93-40.29,29.57-63.15,4.74-23.33,8.38-50.33-6.37-71-13.41-18.76-42-25.15-63.39-18.85A4.46,4.46,0,0,0,220,56c-2.34-11.82-6.32-23.47-13.25-32.64C186.37-3.52,141.09-6.28,114.12,11.17,97,22.28,88.26,39.62,84.58,58.67c-21.07-7-45.13.54-60,16.86C7.65,94.1,3,120.56,6.6,144.8"/><path class="cls-3" d="M111.17,57.58A7.39,7.39,0,0,1,106.33,56c-4.78-4-2.87-14.17,4.26-22.75,5.2-6.26,11.75-9.94,16.77-9.94a7.35,7.35,0,0,1,4.83,1.6c4.78,4,2.88,14.16-4.27,22.75-5.2,6.25-11.74,9.93-16.75,9.93"/><path class="cls-3" d="M142.66,24.81c-1.92,0-3.5-.72-4.11-2.06-1-2.2,1-5.23,4.43-6.78a9.6,9.6,0,0,1,3.9-.89c1.92,0,3.5.72,4.11,2.07,1,2.2-1,5.23-4.43,6.78a9.75,9.75,0,0,1-3.9.88"/><path class="cls-3" d="M57.67,80c-1.92,0-3.5-.72-4.1-2.07-1-2.2,1-5.23,4.42-6.78a9.62,9.62,0,0,1,3.9-.88c1.92,0,3.5.72,4.11,2.06,1,2.2-1,5.23-4.43,6.78a9.6,9.6,0,0,1-3.9.89"/><path class="cls-3" d="M30.14,123.49a6.68,6.68,0,0,1-3.35-.85c-5.76-3.33-5-15.37,1.65-26.91C33.94,86.2,41.76,80,47.56,80a6.58,6.58,0,0,1,3.35.86c5.76,3.32,5,15.36-1.65,26.9-5.5,9.53-13.32,15.74-19.12,15.74"/><path class="cls-3" d="M237.91,80.52c-6,0-10.83-2.83-10.83-6.31s4.85-6.31,10.83-6.31,10.84,2.83,10.84,6.31-4.85,6.31-10.84,6.31"/><path class="cls-3" d="M258.06,78.31a8.65,8.65,0,0,1-1,0c-3-.33-5.23-2-5-3.73.17-1.53,2.2-2.6,4.72-2.6a8.68,8.68,0,0,1,1,.06c3,.33,5.23,2,5,3.73-.17,1.53-2.2,2.59-4.72,2.59"/></svg>