<svg id="Layer_1" data-name="Layer 1" xmlns="http://www.w3.org/2000/svg" viewBox="0 0 300 300"><title>Full-white copy 3</title><path d="M245.76,180.27c-3.48,3.87-7.21,7.62-11.11,11.17,3.61-1.86,6.72-3.43,9.7-4.87a3.86,3.86,0,0,0,2.24-2.63,4.7,4.7,0,0,0-.83-3.67m-14.2,13.31,1.41-1.26a161.23,161.23,0,0,0,12.63-12.58l.18-.2.18.22a5.16,5.16,0,0,1,1.09,4.28,4.33,4.33,0,0,1-2.49,3c-3.41,1.65-7,3.47-11.33,5.71l-1.67.87"/><path d="M25,90.68c12-19.61,36.14-30.4,58.22-22.54-1.59,14.53-.71,29.6,1.24,43.33,3.23,22.83,13.57,42.53,24,62.75,4.89,9.48,10,18.85,15.34,28a4.33,4.33,0,0,0-1.34,3.21,171.71,171.71,0,0,1-4.19,36c-5.83-14.65-13.3-28.8-20.2-42.95-15.28-31.32-29.18-64-30.32-99.32-.2-6.06-9.65-6.32-9.45-.24a178.71,178.71,0,0,0,6,39.71A48.82,48.82,0,0,0,42.56,130c-6-.87-6.2,8.59-.25,9.45a37.82,37.82,0,0,1,24.18,14.26,3.91,3.91,0,0,0,2.87,1.6c3.2,9.37,6.94,18.59,11,27.69a53.38,53.38,0,0,0-17.13-3.89c-6.09-.37-6.3,9.08-.24,9.45a43.19,43.19,0,0,1,23.39,8.62,4.91,4.91,0,0,0,.81.48c7.39,15.09,15.74,30.26,22,46-14.43-9.85-30-17.9-44.55-27.61C44.07,202.36,28,183.74,20,160c-7.5-22.32-7.65-48.8,5-69.36M92.42,79.32c.8-18.08,2.75-36.83,15.51-50.73,22.41-24.45,73.57-27.31,93,2.92,9.35,14.54,12.17,35.21,12.7,52.13a143.51,143.51,0,0,1-7.89,51.73c-10.35,29.61-30.49,54.15-48.88,79.32q.39-24.75.45-49.49a4.48,4.48,0,0,0,1.29-1.1,317.3,317.3,0,0,1,24.15-26.63c4.33-4.25-2.24-11-6.6-6.76q-9.87,9.71-18.83,20.23,0-23-.29-46l.05,0q12.07-14,25.13-27.12c4.29-4.3-2.29-11.09-6.59-6.77q-9.66,9.7-18.79,19.9-.33-21-.91-42c-.17-6.07-9.62-6.33-9.45-.24q.56,20.26.89,40.51c-7.25-6.21-14.51-12.42-21.68-18.73-4.53-4-11.35,2.57-6.77,6.6,9.47,8.32,19.08,16.47,28.63,24.7q.3,21.9.3,43.82-10.28-9.59-21.33-18.31c-4.76-3.74-9.57,4.4-4.84,8.12a304.84,304.84,0,0,1,26.2,23.3q0,31.47-.58,62.93a374.47,374.47,0,0,1-24.34-40c-8.45-15.78-17.89-31.89-23.79-48.83-6-17.12-7.54-35.42-6.74-53.44m130.29-2.16c-.29-3.9-.7-8-1.26-12.06a5.18,5.18,0,0,0,1.36-.19c21.66-6.38,49.29,1.88,58.33,23.84,8.64,21,2.65,47.4-3.26,68.49-5.49,19.56-14.64,38.44-31,51.16-15.38,12-33.26,21.5-50.44,31.26,4.59-12,9.82-23.74,15.18-35.46a5,5,0,0,0,1.11-.48q15.52-9.09,31.7-16.94c5.48-2.65.9-10.92-4.56-8.27q-10.95,5.31-21.59,11.21c4.94-10.73,9.83-21.47,14.28-32.36a4.44,4.44,0,0,0,1.65-.74,133.33,133.33,0,0,1,27.34-15c5.63-2.27,1-10.53-4.56-8.27a132.67,132.67,0,0,0-18.8,9.44,230.2,230.2,0,0,0,11.93-46.16c.84-6-8.61-6.2-9.45-.24-7.13,50.57-34.82,94.37-53,141.36q-5-18-9.05-36.25c0-.15-.1-.27-.14-.4,14.76-20.19,28.85-40.8,36.89-64.71a150.5,150.5,0,0,0,7.36-59.24M6.6,144.8A112.31,112.31,0,0,0,43,211.43c21.62,19.13,49.23,29.52,71.48,47.78.06.05.12.07.17.11a106.63,106.63,0,0,1,4.45,29.95c0,6.09,9.42,6.33,9.45.24a113,113,0,0,0-4.82-32.09,3.7,3.7,0,0,0,.17-.4,180.4,180.4,0,0,0,7.62-42.13c4.19,6.56,8.59,13,13.3,19.23.09.11.18.18.26.28a4.81,4.81,0,0,0,1.94,2.34q-.63,29.2-1.7,58.41c-.22,6.09,9.22,6.32,9.44.24q1.19-32,1.82-64.06c4.69-6.81,9.6-13.52,14.53-20.22q4.62,19.83,10.29,39.39a4.79,4.79,0,0,0,1,1.82,221.68,221.68,0,0,0-9.35,38c-.88,6,8.58,6.19,9.45.24a221.11,221.11,0,0,1,9.08-37.21l38.19-22.84c10.86-6.51,22.12-12.74,31.08-21.85,16.66-17,24.93-40.29,29.57-63.15,4.74-23.33,8.38-50.33-6.37-71-13.41-18.76-42-25.15-63.39-18.85A4.46,4.46,0,0,0,220,56c-2.34-11.82-6.32-23.47-13.25-32.64C186.37-3.52,141.09-6.28,114.12,11.17,97,22.28,88.26,39.62,84.58,58.67c-21.07-7-45.13.54-60,16.86C7.65,94.1,3,120.56,6.6,144.8"/></svg>