<svg id="Layer_1" data-name="Layer 1" xmlns="http://www.w3.org/2000/svg" viewBox="0 0 1654 300"><defs><style>.cls-1{fill:#009245;}.cls-2{fill:#279100;}.cls-3{fill:#065200;}.cls-4{fill:#48d000;}</style></defs><title>Main dark</title><path d="M336.25,203.36V185.9a48.13,48.13,0,0,0,29.26,9.82q21.44,0,21.43-14.29a12.4,12.4,0,0,0-1.83-6.89,18.57,18.57,0,0,0-5-5,38.83,38.83,0,0,0-7.34-3.92q-4.23-1.73-9.08-3.62a115.62,115.62,0,0,1-11.86-5.41,35.42,35.42,0,0,1-8.53-6.15,22.91,22.91,0,0,1-5.16-7.78,27.72,27.72,0,0,1-1.73-10.22,24.3,24.3,0,0,1,3.27-12.65,29,29,0,0,1,8.73-9.23A40.84,40.84,0,0,1,360.9,105a55,55,0,0,1,14.43-1.88,58.29,58.29,0,0,1,23.61,4.56V124.1a46,46,0,0,0-25.79-7.35,29.87,29.87,0,0,0-8.23,1,20.14,20.14,0,0,0-6.3,2.92,13.55,13.55,0,0,0-4.07,4.52,11.85,11.85,0,0,0-1.44,5.8,13.92,13.92,0,0,0,1.44,6.65,14.74,14.74,0,0,0,4.22,4.76,32.47,32.47,0,0,0,6.74,3.77q4,1.68,9,3.67a124.91,124.91,0,0,1,12.1,5.31,41,41,0,0,1,9.13,6.15,24,24,0,0,1,5.8,7.88,25.41,25.41,0,0,1,2,10.62,25,25,0,0,1-3.33,13.09,28.34,28.34,0,0,1-8.88,9.23,40.48,40.48,0,0,1-12.79,5.45,63.24,63.24,0,0,1-15.18,1.79Q347.76,209.41,336.25,203.36Z"/><path d="M437.15,192.35h-.4v61.4H420.48V105.45h16.27V123.3h.4q12-20.23,35.11-20.23,19.65,0,30.66,13.64t11,36.55q0,25.5-12.4,40.82T467.6,209.41Q447.86,209.41,437.15,192.35Zm-.4-41v14.18a30.23,30.23,0,0,0,8.18,21.38q8.19,8.77,20.79,8.78,14.77,0,23.16-11.31T497.26,153q0-17-7.84-26.58t-21.22-9.63q-14.19,0-22.82,9.88T436.75,151.38Z"/><path d="M601.83,207H585.56V191.16h-.4q-10.62,18.24-31.25,18.25-15.18,0-23.76-8T521.57,180q0-28.46,33.53-33.13l30.46-4.26q0-25.89-20.93-25.9-18.36,0-33.14,12.5V112.59q15-9.53,34.53-9.52,35.81,0,35.81,37.89Zm-16.27-51.39L561.05,159q-11.29,1.59-17.06,5.61t-5.75,14.23A15.5,15.5,0,0,0,543.55,191q5.3,4.71,14.13,4.71a26.13,26.13,0,0,0,20-8.48q7.89-8.49,7.89-21.48Z"/><path d="M708.67,207H692.41V149.09q0-32.32-23.61-32.34a25.6,25.6,0,0,0-20.19,9.18q-8,9.18-8,23.16V207H624.35V105.45h16.27v16.86h.4q11.51-19.25,33.33-19.24,16.67,0,25.5,10.76t8.82,31.1Z"/><path d="M803.92,207H787.65V191.16h-.4Q776.63,209.4,756,209.41q-15.18,0-23.76-8T723.66,180q0-28.46,33.53-33.13l30.46-4.26q0-25.89-20.93-25.9-18.36,0-33.14,12.5V112.59q15-9.53,34.52-9.52,35.82,0,35.82,37.89Zm-16.27-51.39L763.14,159q-11.29,1.59-17.06,5.61t-5.75,14.23A15.5,15.5,0,0,0,745.64,191q5.29,4.71,14.13,4.71a26.13,26.13,0,0,0,20-8.48q7.89-8.49,7.89-21.48Z"/><path d="M895.69,202.37q-11.72,7-27.78,7-21.72,0-35.07-14.14T819.5,158.62q0-25.1,14.38-40.33t38.39-15.22q13.4,0,23.61,5v16.66a41.36,41.36,0,0,0-24.2-7.94q-15.57,0-25.55,11.16t-10,29.32q0,17.85,9.38,28.17t25.15,10.32q13.29,0,25-8.83Z"/><path class="cls-1" d="M968.26,208.79q-21.51,0-33.83-14.9t-12.31-40.46q0-26.37,12.77-41.28t34.55-14.91q21.42,0,33.62,14.91t12.18,39.41q0,26.49-12.56,41.86T968.26,208.79Zm.67-86.41a16.51,16.51,0,0,0-14.62,8q-5.22,8-5.21,22.64,0,30.63,20,30.64,19.08,0,19.08-31.47Q988.18,122.37,968.93,122.38Z"/><path class="cls-1" d="M1108.36,99.84l-32,106.36h-30.26l-30.5-106.36H1044l15,65.54a117.44,117.44,0,0,1,3,18.9h.33a129.39,129.39,0,0,1,3.11-18.28l15.3-66.16Z"/><path class="cls-1" d="M1201.34,162.37h-61.81q1.48,23.16,26,23.16a46.61,46.61,0,0,0,27.48-8.31V200.9q-13.14,7.89-34.14,7.89-22.95,0-35.62-14.28t-12.68-39.83q0-26.49,13.69-42T1158,97.24q20.71,0,32.06,13.82t11.33,37.49Zm-27.11-20.15q0-22.86-16.47-22.85-7,0-12.17,6.54a31.63,31.63,0,0,0-6.24,16.31Z"/><path class="cls-1" d="M1264.2,126.22c-5.73,1.65-11.32,2.62-14.89,7.84s-5.37,12.35-5.37,21.35V206.2H1214.7V99.84h29.24v19.73h.37q6.95-21.6,25-21.6a17,17,0,0,1,7.22,1.25S1264.68,126.09,1264.2,126.22Z"/><path class="cls-1" d="M1356.64,73.87a26.79,26.79,0,0,0-10.83-2.49q-14.05,0-14.06,17.14V99.84h21.65V124h-21.65V206.2H1302.6V124h-15.91V99.84h15.91V86.65q0-18.18,10.55-29.29t28.69-11.11a45.36,45.36,0,0,1,14.8,2.07Z"/><path class="cls-1" d="M1396.71,170.16q0,6.75,2.87,10.23a9.42,9.42,0,0,0,7.67,3.48,23.07,23.07,0,0,0,4.81-.52l4.82-1v23.05a95.39,95.39,0,0,1-11.15,2.55,73.79,73.79,0,0,1-12.26,1,25.1,25.1,0,0,1-10.6-2.19,22.46,22.46,0,0,1-8.14-6.28,29.55,29.55,0,0,1-5.23-9.92,43.14,43.14,0,0,1-1.85-13.08V48.74h29.06Z"/><path class="cls-1" d="M1469.18,208.79q-21.51,0-33.83-14.9T1423,153.43q0-26.37,12.78-41.28t34.54-14.91q21.44,0,33.62,14.91t12.18,39.41q0,26.49-12.56,41.86T1469.18,208.79Zm.67-86.41a16.51,16.51,0,0,0-14.62,8q-5.2,8-5.21,22.64,0,30.63,20,30.64,19.08,0,19.08-31.47Q1489.1,122.37,1469.85,122.38Z"/><path class="cls-1" d="M1654,99.84,1629.21,206.2H1601.3l-12.69-62.32a77.55,77.55,0,0,1-1.43-13.61h-.5a100.26,100.26,0,0,1-1.68,13.19l-13.62,62.74h-27.56L1519.53,99.84h27.06l11.85,69.38a110.62,110.62,0,0,1,1.26,11.84h.5a79.64,79.64,0,0,1,1.52-12.25l14.79-69h25.3l13.28,69.38q.5,2.59,1.17,12.05h.59q.42-6,1.35-12.05l11.17-69.38Z"/><path class="cls-2" d="M81.72,197.7a4.91,4.91,0,0,1-.81-.48,43.19,43.19,0,0,0-23.39-8.62c-6.06-.37-5.84-9.82.25-9.45A53.44,53.44,0,0,1,74.9,183c-4.05-9.1-7.79-18.32-11-27.69a3.91,3.91,0,0,1-2.87-1.6,37.82,37.82,0,0,0-24.17-14.26c-5.95-.86-5.78-10.32.24-9.45a48.82,48.82,0,0,1,21.74,8.64A178.71,178.71,0,0,1,52.8,99c-.2-6.08,9.25-5.82,9.45.24,1.14,35.34,15,68,30.32,99.32,3.6,7.39,7.36,14.77,11,22.23a171.51,171.51,0,0,0,8.73-29.18q-4.77-8.6-9.29-17.36C92.52,154,82.18,134.3,79,111.47,77,97.74,76.12,82.67,77.71,68.14,55.63,60.28,31.54,71.07,19.5,90.68c-12.63,20.56-12.48,47-5,69.36,8,23.7,24.08,42.32,44.69,56C71,224,83.48,230.74,95.44,238.27q1.68-3.17,3.22-6.37C93.31,220.32,87.25,209,81.72,197.7"/><path class="cls-2" d="M112.77,241.48a171,171,0,0,0,4.19-36,4.33,4.33,0,0,1,1.34-3.21q-3.09-5.28-6-10.65a171.51,171.51,0,0,1-8.73,29.18c3.3,6.83,6.46,13.72,9.25,20.72"/><path class="cls-2" d="M98.66,231.9q-1.55,3.21-3.22,6.37c2.8,1.77,5.59,3.56,8.33,5.42-1.59-4-3.31-7.89-5.11-11.79"/><path class="cls-3" d="M112.77,241.48c-.45-1.14-.92-2.28-1.39-3.41,0,0,0,0,0,0h0c-2.43-5.82-5.09-11.57-7.85-17.28a170.63,170.63,0,0,0,8.72-29.16c1.92,3.46,3.86,6.89,5.86,10.29l.2.34h0v0a4.33,4.33,0,0,0-1.33,3.19h0a171,171,0,0,1-4.19,36"/><path class="cls-3" d="M103.77,243.69q-4.11-2.79-8.32-5.43c1.11-2.11,2.19-4.22,3.21-6.36,1.8,3.9,3.52,7.83,5.11,11.79h0"/><path d="M240.3,180.27c-3.48,3.87-7.21,7.62-11.11,11.17,3.61-1.86,6.73-3.43,9.7-4.87a3.86,3.86,0,0,0,2.24-2.63,4.66,4.66,0,0,0-.83-3.67m-14.2,13.31,1.41-1.26a161.23,161.23,0,0,0,12.63-12.58l.19-.2.17.22a5.2,5.2,0,0,1,1.1,4.28,4.37,4.37,0,0,1-2.5,3c-3.41,1.65-7,3.47-11.32,5.71l-1.68.87"/><path class="cls-2" d="M235.23,96.4c.84-6,10.3-5.78,9.45.24a230.2,230.2,0,0,1-11.93,46.16,133.75,133.75,0,0,1,18.8-9.44c5.58-2.26,10.19,6,4.56,8.27a133.59,133.59,0,0,0-27.34,15,4.44,4.44,0,0,1-1.65.74c-4.45,10.89-9.33,21.63-14.27,32.36q10.64-5.88,21.59-11.21a4.66,4.66,0,0,1,5.88,1.39,153.5,153.5,0,0,0,38-82.92,53.52,53.52,0,0,0-2.6-8.23c-9-22-36.67-30.22-58.32-23.84a5.3,5.3,0,0,1-1.37.19c.56,4.1,1,8.16,1.26,12.06a150.5,150.5,0,0,1-7.36,59.24c-8,23.91-22.13,44.52-36.89,64.71a2.35,2.35,0,0,1,.14.4q2.42,10.85,5.18,21.6,6.27-2.58,12.3-5.6C208,177.94,229.14,139.65,235.23,96.4"/><path class="cls-2" d="M207.29,203.72a5,5,0,0,1-1.1.48c-1,2.08-1.9,4.17-2.84,6.26a168.73,168.73,0,0,0,24.32-18q-10.32,5.35-20.38,11.22"/><path class="cls-2" d="M190.62,217.51q-6,3-12.3,5.6,1.86,7.33,3.87,14.65c2.64-6.81,5.48-13.55,8.43-20.25"/><path class="cls-3" d="M182.19,237.76q-2-7.31-3.87-14.65,6.27-2.58,12.29-5.6c-2.57,5.85-5.06,11.73-7.41,17.66l0,.09c0,.06,0,.11-.07.17-.25.63-.5,1.25-.74,1.88l0,0a.58.58,0,0,1-.05.14c0,.09-.07.18-.1.27h0"/><path class="cls-2" d="M239,186.78c-3.8,1.85-7.57,3.77-11.32,5.72a168.73,168.73,0,0,1-24.32,18c-4.36,9.65-8.57,19.35-12.35,29.2,17.19-9.76,35.06-19.3,50.44-31.26,16.34-12.72,25.49-31.6,31-51.16,5.16-18.41,10.38-40.86,5.86-60.26a153.5,153.5,0,0,1-38,82.92c1.66,2.11,1.76,5.39-1.33,6.88"/><path class="cls-3" d="M191,239.66l.11-.27,0,0a2,2,0,0,1,.08-.22.14.14,0,0,0,0-.07l.08-.19,0-.08.07-.19,0-.08a.61.61,0,0,0,.05-.12c3.65-9.42,7.69-18.7,11.86-27.94a168.73,168.73,0,0,0,24.32-18c3.75-1.95,7.52-3.87,11.32-5.72a4.12,4.12,0,0,0,2.29-2.49h0v0h0v0h0s0,0,0,0h0a4.91,4.91,0,0,0-1-4.26,153.5,153.5,0,0,0,38-82.92A71.47,71.47,0,0,1,280,113.07c0,14.51-3.55,29.59-7.19,42.74a0,0,0,0,0,0,0l0,.06V156l0,.08v0a.19.19,0,0,0,0,.08l0,0,0,.12c0,.06,0,.12-.05.18v0l0,.09v0l0,.09a.43.43,0,0,0,0,.05.19.19,0,0,0,0,.08,0,0,0,0,1,0,0l0,.1a0,0,0,0,1,0,0s0,.07,0,.1h0l0,.13h0c-5.49,19.56-14.64,38.44-31,51.16-15.38,12-33.25,21.5-50.44,31.26"/><path class="cls-2" d="M142.41,158.66a304.84,304.84,0,0,0-26.2-23.3c-4.73-3.72.08-11.86,4.85-8.12q11.07,8.72,21.33,18.31,0-21.92-.31-43.82c-9.55-8.23-19.16-16.38-28.62-24.7-4.59-4,2.23-10.58,6.76-6.6,7.17,6.31,14.43,12.52,21.68,18.73q-.33-20.25-.89-40.51c-.17-6.09,9.28-5.83,9.45.24q.58,21,.92,42,9.12-10.2,18.78-19.9c4.3-4.32,10.88,2.47,6.6,6.77Q163.7,90.89,151.62,104.9l-.05,0q.28,23,.29,46,9-10.51,18.84-20.23c4.35-4.28,10.92,2.51,6.59,6.76a317.3,317.3,0,0,0-24.15,26.63,4.48,4.48,0,0,1-1.29,1.1c0,5.15,0,10.3-.09,15.45,37.87-38.57,56.74-93,41-152.89C171.6,1.6,123.9,5.2,102.47,28.59,89.72,42.49,87.76,61.24,87,79.32s.79,36.32,6.75,53.44c5.9,16.94,15.33,33.05,23.79,48.83q5.2,9.71,10.84,19.18,7.24-5.25,13.91-11.11.13-15.51.16-31"/><path class="cls-2" d="M151.76,180.65q-.1,17-.36,34c18.39-25.17,38.53-49.71,48.88-79.32a143.51,143.51,0,0,0,7.89-51.73c-.53-16.92-3.35-37.59-12.7-52.13a43.47,43.47,0,0,0-2.74-3.75c15.77,59.92-3.1,114.32-41,152.89"/><path class="cls-2" d="M142.25,189.66q-6.65,5.85-13.91,11.11c4.24,7.1,8.7,14.07,13.5,20.82q.28-16,.41-31.93"/><path class="cls-3" d="M151.4,214.69c0-.34,0-.69,0-1v-.06q.26-16.48.36-33c28.76-29.3,46.56-67.73,46.53-110.79h0a165,165,0,0,0-5.58-42.08,43.54,43.54,0,0,1,2.59,3.51l.15.24c9.35,14.54,12.17,35.21,12.7,52.13a143.87,143.87,0,0,1-6.52,47.63c-.44,1.37-.89,2.74-1.37,4.1-10.35,29.61-30.49,54.15-48.88,79.32"/><path class="cls-3" d="M141.84,221.59h0l-.4-.57,0-.05-.14-.2c-4.58-6.49-8.85-13.19-12.92-20q7.24-5.25,13.91-11.11-.13,16-.41,31.93"/><path d="M19.5,90.68c12-19.61,36.13-30.4,58.21-22.54C76.12,82.67,77,97.74,79,111.47c3.23,22.83,13.57,42.53,24,62.75,4.89,9.48,10,18.85,15.34,28a4.33,4.33,0,0,0-1.34,3.21,171,171,0,0,1-4.19,36c-5.83-14.65-13.3-28.8-20.2-42.95-15.28-31.32-29.18-64-30.32-99.32-.2-6.06-9.65-6.32-9.45-.24a178.71,178.71,0,0,0,6,39.71A48.82,48.82,0,0,0,37.1,130c-6-.87-6.19,8.59-.25,9.45A37.82,37.82,0,0,1,61,153.75a3.91,3.91,0,0,0,2.87,1.6c3.21,9.37,6.95,18.59,11,27.69a53.44,53.44,0,0,0-17.13-3.89c-6.09-.37-6.31,9.08-.25,9.45a43.19,43.19,0,0,1,23.39,8.62,4.91,4.91,0,0,0,.81.48c7.4,15.09,15.74,30.26,22,46-14.43-9.85-30-17.9-44.55-27.61-20.61-13.72-36.73-32.34-44.69-56-7.51-22.32-7.66-48.8,5-69.36M87,79.32c.8-18.08,2.76-36.83,15.51-50.73,22.41-24.45,73.58-27.31,93,2.92,9.35,14.54,12.17,35.21,12.7,52.13a143.51,143.51,0,0,1-7.89,51.73c-10.35,29.61-30.49,54.15-48.88,79.32q.39-24.75.45-49.49a4.48,4.48,0,0,0,1.29-1.1,317.3,317.3,0,0,1,24.15-26.63c4.33-4.25-2.24-11-6.59-6.76q-9.87,9.71-18.84,20.23,0-23-.29-46l.05,0q12.09-14,25.14-27.12c4.28-4.3-2.3-11.09-6.6-6.77q-9.66,9.7-18.78,19.9-.34-21-.92-42c-.17-6.07-9.62-6.33-9.45-.24q.56,20.26.89,40.51c-7.25-6.21-14.51-12.42-21.68-18.73-4.53-4-11.35,2.57-6.76,6.6,9.46,8.32,19.07,16.47,28.62,24.7q.3,21.9.31,43.82-10.27-9.59-21.33-18.31c-4.77-3.74-9.58,4.4-4.85,8.12a304.84,304.84,0,0,1,26.2,23.3q0,31.47-.57,62.93a372.84,372.84,0,0,1-24.34-40C109,165.81,99.61,149.7,93.71,132.76c-6-17.12-7.55-35.42-6.75-53.44m130.29-2.16c-.29-3.9-.7-8-1.26-12.06a5.3,5.3,0,0,0,1.37-.19c21.65-6.38,49.29,1.88,58.32,23.84,8.64,21,2.65,47.4-3.26,68.49-5.49,19.56-14.64,38.44-31,51.16-15.38,12-33.25,21.5-50.44,31.26,4.59-12,9.82-23.74,15.19-35.46a5,5,0,0,0,1.1-.48q15.53-9.09,31.7-16.94c5.48-2.65.91-10.92-4.55-8.27q-11,5.31-21.59,11.21c4.94-10.73,9.82-21.47,14.27-32.36a4.44,4.44,0,0,0,1.65-.74,133.59,133.59,0,0,1,27.34-15c5.63-2.27,1-10.53-4.56-8.27a133.75,133.75,0,0,0-18.8,9.44,230.2,230.2,0,0,0,11.93-46.16c.85-6-8.61-6.2-9.45-.24-7.12,50.57-34.82,94.37-53,141.36q-5-18-9.05-36.25a2.35,2.35,0,0,0-.14-.4c14.76-20.19,28.86-40.8,36.89-64.71a150.5,150.5,0,0,0,7.36-59.24M1.14,144.8a112.36,112.36,0,0,0,36.4,66.63C59.16,230.56,86.78,241,109,259.21a1.53,1.53,0,0,0,.16.11,105.91,105.91,0,0,1,4.45,29.95c0,6.09,9.43,6.33,9.45.24a113,113,0,0,0-4.81-32.09,3.7,3.7,0,0,0,.16-.4,180.4,180.4,0,0,0,7.62-42.13c4.19,6.56,8.59,13,13.3,19.23.09.11.18.18.26.28a4.81,4.81,0,0,0,1.94,2.34q-.63,29.2-1.7,58.41c-.22,6.09,9.22,6.32,9.45.24q1.19-32,1.82-64.06c4.68-6.81,9.59-13.52,14.53-20.22q4.6,19.83,10.28,39.39a4.8,4.8,0,0,0,1,1.82,221.68,221.68,0,0,0-9.35,38c-.89,6,8.57,6.19,9.45.24a219.19,219.19,0,0,1,9.08-37.21l38.18-22.84c10.87-6.51,22.13-12.74,31.08-21.85,16.67-17,24.93-40.29,29.57-63.15,4.75-23.33,8.39-50.33-6.37-71-13.41-18.76-42-25.15-63.39-18.85a4.46,4.46,0,0,0-.67.27c-2.34-11.82-6.31-23.47-13.25-32.64C180.92-3.52,135.63-6.28,108.67,11.17,91.49,22.28,82.8,39.62,79.12,58.67c-21.07-7-45.13.54-60,16.86-16.93,18.57-21.59,45-18,69.27"/><path class="cls-4" d="M105.71,57.58A7.38,7.38,0,0,1,100.88,56c-4.79-4-2.88-14.17,4.26-22.75,5.2-6.26,11.74-9.94,16.76-9.94a7.33,7.33,0,0,1,4.83,1.6c4.78,4,2.88,14.16-4.26,22.75-5.2,6.25-11.75,9.93-16.76,9.93"/><path class="cls-4" d="M137.2,24.81c-1.92,0-3.5-.72-4.1-2.06-1-2.2,1-5.23,4.42-6.78a9.64,9.64,0,0,1,3.9-.89c1.92,0,3.5.72,4.11,2.07,1,2.2-1,5.23-4.43,6.78a9.75,9.75,0,0,1-3.9.88"/><path class="cls-4" d="M52.22,80c-1.92,0-3.51-.72-4.11-2.07-1-2.2,1-5.23,4.42-6.78a9.65,9.65,0,0,1,3.9-.88c1.93,0,3.51.72,4.11,2.06,1,2.2-1,5.23-4.42,6.78a9.67,9.67,0,0,1-3.9.89"/><path class="cls-4" d="M24.68,123.49a6.68,6.68,0,0,1-3.35-.85c-5.75-3.33-5-15.37,1.65-26.91C28.48,86.2,36.3,80,42.1,80a6.65,6.65,0,0,1,3.36.86c5.75,3.32,5,15.36-1.65,26.9-5.51,9.53-13.33,15.74-19.13,15.74"/><path class="cls-4" d="M232.46,80.52c-6,0-10.83-2.83-10.83-6.31s4.85-6.31,10.83-6.31,10.83,2.83,10.83,6.31-4.85,6.31-10.83,6.31"/><path class="cls-4" d="M252.61,78.31a8.92,8.92,0,0,1-1,0c-3-.33-5.22-2-5-3.73.17-1.53,2.19-2.6,4.71-2.6a9,9,0,0,1,1,.06c3,.33,5.22,2,5,3.73-.17,1.53-2.19,2.59-4.71,2.59"/></svg>